<svg width="107" height="34" viewBox="0 0 107 34" fill="none" xmlns="http://www.w3.org/2000/svg">
<path d="M1.84375 1.71875C2.41667 1.16667 3.45312 0.890625 4.95312 0.890625C5.89062 0.890625 6.67708 0.984375 7.3125 1.17188C7.94792 1.35938 8.42188 1.55729 8.73438 1.76562C9.05729 1.97396 9.21875 2.20312 9.21875 2.45312C9.21875 3.02604 8.55208 3.59375 7.21875 4.15625C7.02083 4.25 6.5 4.44271 5.65625 4.73438C4.82292 5.01562 4.26042 5.20833 3.96875 5.3125C3.33333 5.55208 2.91146 5.73958 2.70312 5.875C2.70312 5.92708 2.72396 5.97396 2.76562 6.01562C2.80729 6.04688 2.90625 6.10938 3.0625 6.20312C3.21875 6.28646 3.45312 6.41146 3.76562 6.57812C4.07812 6.73438 4.51042 6.96354 5.0625 7.26562C6.70833 8.16146 8.40104 9.11979 10.1406 10.1406C10.224 10.2031 10.3333 10.2917 10.4688 10.4062C10.6042 10.5104 10.6719 10.6302 10.6719 10.7656C10.6719 10.8906 10.6302 10.9792 10.5469 11.0312C10.4635 11.0833 10.3646 11.1198 10.25 11.1406C10.1354 11.1719 10.0156 11.1875 9.89062 11.1875H9.57812C9.36979 11.1875 8.93229 10.9635 8.26562 10.5156C7.60938 10.0677 7.03646 9.67708 6.54688 9.34375C6.06771 9.01042 5.57812 8.6875 5.07812 8.375C3.90104 7.61458 2.96875 7.11979 2.28125 6.89062V10.4688C2.28125 10.6771 2.10417 10.7812 1.75 10.7812H1.57812C1.35938 10.7812 1.19792 10.6719 1.09375 10.4531C0.947917 10.1198 0.875 9.50521 0.875 8.60938L0.921875 5.46875C0.921875 3.92708 0.854167 2.57292 0.71875 1.40625C0.96875 0.979167 1.27604 0.994792 1.64062 1.45312C1.72396 1.55729 1.79167 1.64583 1.84375 1.71875ZM7.125 1.90625L6.10938 1.89062C3.75521 1.89062 2.40104 2.16146 2.04688 2.70312C1.94271 2.84896 1.89062 3.03646 1.89062 3.26562C1.89062 3.48438 1.90104 3.67708 1.92188 3.84375C1.97396 4.27083 2.09375 4.57812 2.28125 4.76562C2.3125 4.77604 2.36458 4.78125 2.4375 4.78125C2.52083 4.78125 2.66667 4.76042 2.875 4.71875C3.09375 4.67708 3.38021 4.60417 3.73438 4.5C4.09896 4.38542 4.48438 4.25 4.89062 4.09375C5.29688 3.9375 5.6875 3.77604 6.0625 3.60938C7.23958 3.07812 7.82812 2.64583 7.82812 2.3125C7.82812 2.125 7.59375 1.98958 7.125 1.90625ZM15.0156 9.90625C15.9323 9.90625 17.3125 9.48958 19.1562 8.65625C19.2708 8.65625 19.3646 8.69792 19.4375 8.78125C19.5104 8.85417 19.5469 8.94271 19.5469 9.04688C19.1302 9.75521 18.3333 10.3073 17.1562 10.7031C15.9792 11.099 14.8802 11.1667 13.8594 10.9062C12.7031 10.6042 12 9.95312 11.75 8.95312C11.7292 8.75521 11.7188 8.48958 11.7188 8.15625C11.7188 7.82292 11.8021 7.38542 11.9688 6.84375C12.1458 6.29167 12.4427 5.77083 12.8594 5.28125C13.276 4.79167 13.7656 4.40625 14.3281 4.125C14.8906 3.84375 15.4896 3.70312 16.125 3.70312C16.7292 3.70312 17.4062 3.91146 18.1562 4.32812C18.5104 4.52604 18.7917 4.75 19 5C19.2083 5.25 19.3125 5.50521 19.3125 5.76562C19.3125 5.83854 19.3073 5.91146 19.2969 5.98438C19.276 6.61979 18.9688 7.02083 18.375 7.1875C18.1146 7.26042 17.8125 7.29688 17.4688 7.29688L15.2188 7.20312C14.4688 7.20312 13.8958 7.36458 13.5 7.6875C13.2708 7.86458 13.1094 8.13021 13.0156 8.48438C13.276 9.43229 13.9427 9.90625 15.0156 9.90625ZM17.7969 5.07812C17.5677 4.91146 17.3281 4.79167 17.0781 4.71875C16.8281 4.64583 16.6198 4.60938 16.4531 4.60938C16.2865 4.60938 16.0156 4.66667 15.6406 4.78125C15.2656 4.88542 14.9323 5.00521 14.6406 5.14062C13.9219 5.47396 13.5625 5.82292 13.5625 6.1875C14.3958 6.26042 15.0208 6.29688 15.4375 6.29688C16.5938 6.29688 17.375 6.19792 17.7812 6C18.0312 5.89583 18.1562 5.76562 18.1562 5.60938C18.1562 5.42188 18.0365 5.24479 17.7969 5.07812ZM25.8281 6.96875C26.974 6.96875 27.5469 7.26042 27.5469 7.84375C27.5469 8.28125 27.2292 8.79167 26.5938 9.375C25.6458 10.2396 24.3698 10.9323 22.7656 11.4531C22.6927 11.4531 22.6094 11.3802 22.5156 11.2344C22.4323 11.0885 22.3646 10.9792 22.3125 10.9062C22.2708 10.8229 22.2396 10.7708 22.2188 10.75C23.4167 10.3542 24.401 9.875 25.1719 9.3125C25.6927 8.9375 25.9531 8.63021 25.9531 8.39062C25.9531 8.15104 25.6458 8.03125 25.0312 8.03125C24.4167 8.03125 23.5156 8.17708 22.3281 8.46875C21.7865 8.44792 21.3177 8.25521 20.9219 7.89062C20.5781 7.56771 20.4062 7.24479 20.4062 6.92188C20.4062 6.58854 20.5 6.28646 20.6875 6.01562C20.875 5.73438 21.125 5.47396 21.4375 5.23438C21.75 4.99479 22.1146 4.77604 22.5312 4.57812C23.5521 4.08854 24.6094 3.84375 25.7031 3.84375C26.026 3.84375 26.3385 3.875 26.6406 3.9375C26.8906 3.9375 27.0365 4.04688 27.0781 4.26562C27.1198 4.48438 27.1406 4.84375 27.1406 5.34375C26.526 5.0625 25.8333 4.92188 25.0625 4.92188C24.1042 4.92188 23.3125 5.11458 22.6875 5.5C22.0417 5.875 21.7083 6.36458 21.6875 6.96875C21.6875 7.26042 21.901 7.40625 22.3281 7.40625L23.4688 7.28125C24.4479 7.07292 25.2344 6.96875 25.8281 6.96875ZM29.9219 3.65625C30.0573 5.60417 30.1719 7.85938 30.2656 10.4219C30.2031 10.7448 29.9531 10.9062 29.5156 10.9062C29.401 10.9062 29.2812 10.8854 29.1562 10.8438C29.0417 10.7917 28.9688 10.724 28.9375 10.6406V3.65625H29.9219ZM28.4688 1.53125C28.4688 1.16667 28.6823 0.984375 29.1094 0.984375C29.3906 0.984375 29.6198 1.04688 29.7969 1.17188C29.8281 1.28646 29.8438 1.40104 29.8438 1.51562C29.8438 1.61979 29.8021 1.72396 29.7188 1.82812C29.6354 1.93229 29.5104 1.98438 29.3438 1.98438C29.1771 1.98438 29.0104 1.94792 28.8438 1.875C28.6771 1.79167 28.5521 1.67708 28.4688 1.53125ZM1.29688 33.0312L0.59375 33V29.3594C0.645833 28.5781 0.6875 27.8854 0.71875 27.2812C0.75 26.6771 0.807292 26.1562 0.890625 25.7188C0.973958 25.2812 1.10938 24.9167 1.29688 24.625C1.48438 24.3229 1.76562 24.0833 2.14062 23.9062C2.81771 23.5729 4.0625 23.4062 5.875 23.4062C6.65625 23.4062 7.31771 23.4844 7.85938 23.6406C8.40104 23.7865 8.80208 23.9271 9.0625 24.0625C9.65625 24.3542 9.95312 24.7604 9.95312 25.2812C9.95312 25.8021 9.80208 26.276 9.5 26.7031C9.20833 27.1198 8.82292 27.4844 8.34375 27.7969C7.875 28.099 7.34375 28.349 6.75 28.5469C6.15625 28.7448 5.5625 28.9062 4.96875 29.0312C3.90625 29.2396 2.88542 29.3438 1.90625 29.3438L1.84375 32.8438C1.84375 32.9688 1.66146 33.0312 1.29688 33.0312ZM1.89062 27.5781C1.89062 28.099 2.11458 28.3594 2.5625 28.3594C2.625 28.3594 2.73438 28.3594 2.89062 28.3594C3.04688 28.349 3.31771 28.3333 3.70312 28.3125C4.09896 28.2812 4.51562 28.2292 4.95312 28.1562C5.39062 28.0729 5.82812 27.9688 6.26562 27.8438C6.71354 27.7188 7.11458 27.5625 7.46875 27.375C8.27083 26.9375 8.67188 26.3802 8.67188 25.7031C8.51562 25.026 7.89583 24.5938 6.8125 24.4062C6.48958 24.3438 6.19792 24.3125 5.9375 24.3125C5.6875 24.3125 5.38542 24.3281 5.03125 24.3594C4.6875 24.3802 4.28646 24.4583 3.82812 24.5938C3.36979 24.7292 2.98438 24.9115 2.67188 25.1406C2.35938 25.3698 2.1875 25.6354 2.15625 25.9375C2.14583 26.0625 2.11979 26.2083 2.07812 26.375C1.95312 26.9062 1.89062 27.3073 1.89062 27.5781ZM13.8125 31.9062C14.7292 31.9062 16.1094 31.4896 17.9531 30.6562C18.0677 30.6562 18.1615 30.6979 18.2344 30.7812C18.3073 30.8542 18.3438 30.9427 18.3438 31.0469C17.9271 31.7552 17.1302 32.3073 15.9531 32.7031C14.776 33.099 13.6771 33.1667 12.6562 32.9062C11.5 32.6042 10.7969 31.9531 10.5469 30.9531C10.526 30.7552 10.5156 30.4896 10.5156 30.1562C10.5156 29.8229 10.599 29.3854 10.7656 28.8438C10.9427 28.2917 11.2396 27.7708 11.6562 27.2812C12.0729 26.7917 12.5625 26.4062 13.125 26.125C13.6875 25.8438 14.2865 25.7031 14.9219 25.7031C15.526 25.7031 16.2031 25.9115 16.9531 26.3281C17.3073 26.526 17.5885 26.75 17.7969 27C18.0052 27.25 18.1094 27.5052 18.1094 27.7656C18.1094 27.8385 18.1042 27.9115 18.0938 27.9844C18.0729 28.6198 17.7656 29.0208 17.1719 29.1875C16.9115 29.2604 16.6094 29.2969 16.2656 29.2969L14.0156 29.2031C13.2656 29.2031 12.6927 29.3646 12.2969 29.6875C12.0677 29.8646 11.9062 30.1302 11.8125 30.4844C12.0729 31.4323 12.7396 31.9062 13.8125 31.9062ZM16.5938 27.0781C16.3646 26.9115 16.125 26.7917 15.875 26.7188C15.625 26.6458 15.4167 26.6094 15.25 26.6094C15.0833 26.6094 14.8125 26.6667 14.4375 26.7812C14.0625 26.8854 13.7292 27.0052 13.4375 27.1406C12.7188 27.474 12.3594 27.8229 12.3594 28.1875C13.1927 28.2604 13.8177 28.2969 14.2344 28.2969C15.3906 28.2969 16.1719 28.1979 16.5781 28C16.8281 27.8958 16.9531 27.7656 16.9531 27.6094C16.9531 27.4219 16.8333 27.2448 16.5938 27.0781ZM26.9531 27.2969C26.5156 26.9844 25.9531 26.8281 25.2656 26.8281C24.6198 26.8281 24.0208 26.9479 23.4688 27.1875C22.4271 27.625 21.7135 28.1875 21.3281 28.875C21.1615 29.1875 21.0781 29.5208 21.0781 29.875C21.0781 29.9375 21.0781 30.1146 21.0781 30.4062C21.0781 30.6875 21.1302 31.0729 21.2344 31.5625C21.3385 32.0417 21.3906 32.5312 21.3906 33.0312C21.1719 33.0417 20.9948 33.0677 20.8594 33.1094C20.724 33.151 20.6094 33.1719 20.5156 33.1719C20.4219 33.1719 20.3385 33.1302 20.2656 33.0469C20.2031 32.9635 20.1302 32.8021 20.0469 32.5625C20.0365 32.5 20.0156 32.3229 19.9844 32.0312C19.9531 31.7396 19.9115 31.3854 19.8594 30.9688C19.8177 30.5521 19.7656 30.099 19.7031 29.6094C19.651 29.1094 19.599 28.6198 19.5469 28.1406C19.4323 27.099 19.3438 26.3333 19.2812 25.8438C19.2812 25.5938 19.4635 25.4688 19.8281 25.4688C20.0469 25.4688 20.2188 25.5625 20.3438 25.75C20.4688 25.9271 20.5677 26.1354 20.6406 26.375C20.7135 26.6042 20.7604 26.8333 20.7812 27.0625C20.8125 27.2917 20.8385 27.4531 20.8594 27.5469C22.2344 26.3177 23.9427 25.7031 25.9844 25.7031C26.2135 25.7031 26.4531 25.7083 26.7031 25.7188C26.7656 25.7083 26.8438 25.7031 26.9375 25.7031C27.0312 25.7031 27.125 25.7656 27.2188 25.8906C27.3333 26.0365 27.3906 26.2135 27.3906 26.4219C27.3906 26.9427 27.2448 27.2344 26.9531 27.2969ZM33.4531 28.9688C34.599 28.9688 35.1719 29.2604 35.1719 29.8438C35.1719 30.2812 34.8542 30.7917 34.2188 31.375C33.2708 32.2396 31.9948 32.9323 30.3906 33.4531C30.3177 33.4531 30.2344 33.3802 30.1406 33.2344C30.0573 33.0885 29.9896 32.9792 29.9375 32.9062C29.8958 32.8229 29.8646 32.7708 29.8438 32.75C31.0417 32.3542 32.026 31.875 32.7969 31.3125C33.3177 30.9375 33.5781 30.6302 33.5781 30.3906C33.5781 30.151 33.2708 30.0312 32.6562 30.0312C32.0417 30.0312 31.1406 30.1771 29.9531 30.4688C29.4115 30.4479 28.9427 30.2552 28.5469 29.8906C28.2031 29.5677 28.0312 29.2448 28.0312 28.9219C28.0312 28.5885 28.125 28.2865 28.3125 28.0156C28.5 27.7344 28.75 27.474 29.0625 27.2344C29.375 26.9948 29.7396 26.776 30.1562 26.5781C31.1771 26.0885 32.2344 25.8438 33.3281 25.8438C33.651 25.8438 33.9635 25.875 34.2656 25.9375C34.5156 25.9375 34.6615 26.0469 34.7031 26.2656C34.7448 26.4844 34.7656 26.8438 34.7656 27.3438C34.151 27.0625 33.4583 26.9219 32.6875 26.9219C31.7292 26.9219 30.9375 27.1146 30.3125 27.5C29.6667 27.875 29.3333 28.3646 29.3125 28.9688C29.3125 29.2604 29.526 29.4062 29.9531 29.4062L31.0938 29.2812C32.0729 29.0729 32.8594 28.9688 33.4531 28.9688ZM36.5312 30.0312C36.5312 28.8021 37.0625 27.8125 38.125 27.0625C38.9688 26.4688 39.9844 26.1094 41.1719 25.9844C41.2344 25.9844 41.3802 25.9844 41.6094 25.9844C41.8385 25.9844 42.1458 26.0521 42.5312 26.1875C43.3854 26.4792 43.9688 26.9948 44.2812 27.7344C44.4062 28.026 44.4688 28.276 44.4688 28.4844C44.4688 28.6823 44.4635 28.8229 44.4531 28.9062C44.4531 30.2083 43.9583 31.2344 42.9688 31.9844C42.0521 32.6719 40.9062 33.0156 39.5312 33.0156C38.5417 33.0156 37.7917 32.7865 37.2812 32.3281C36.7812 31.8698 36.5312 31.1042 36.5312 30.0312ZM37.6094 30.4062C37.6094 31.0521 37.7812 31.4896 38.125 31.7188C38.3854 31.8854 38.8229 31.9688 39.4375 31.9688C40.0521 31.9688 40.5938 31.9219 41.0625 31.8281C41.5312 31.7344 41.9479 31.5729 42.3125 31.3438C43.0938 30.8438 43.4844 30.0677 43.4844 29.0156C43.4844 28.3906 43.3177 27.8802 42.9844 27.4844C42.6198 27.0573 42.1406 26.8438 41.5469 26.8438C41.1406 26.9167 40.7292 26.9948 40.3125 27.0781C39.9062 27.1615 39.5208 27.3229 39.1562 27.5625C38.3646 28.0729 37.849 29.0208 37.6094 30.4062ZM51.2344 29.5781C51.2344 28.3385 51.1667 27.4271 51.0312 26.8438C51.1146 26.6875 50.9896 26.6094 50.6562 26.6094C50.3021 26.6094 49.8438 26.6979 49.2812 26.875C48.7188 27.0521 48.2604 27.2292 47.9062 27.4062C47.0625 27.8125 46.5938 28.2083 46.5 28.5938V32.8438H45.4531C45.3177 32.4896 45.25 31.4948 45.25 29.8594C45.25 28.401 45.276 27.3281 45.3281 26.6406C45.3906 25.9531 45.4375 25.5625 45.4688 25.4688C45.7396 25.2917 45.9583 25.2031 46.125 25.2031C46.3854 25.2031 46.5156 25.5104 46.5156 26.125C46.5156 26.3646 46.5 26.599 46.4688 26.8281C46.4479 27.0469 46.4375 27.1979 46.4375 27.2812C48.125 26.0417 49.4323 25.4219 50.3594 25.4219C51.4115 25.4219 52.0104 26.2708 52.1562 27.9688C52.2188 28.5625 52.25 29.3854 52.25 30.4375L52.2344 31.6719C52.2344 32.1302 52.2448 32.5729 52.2656 33C52.1615 33.0625 52.0781 33.0938 52.0156 33.0938C51.9844 33.0833 51.9167 33.0677 51.8125 33.0469C51.7083 33.026 51.5729 33.0104 51.4062 33C51.3021 32.5833 51.2448 32.1615 51.2344 31.7344C51.224 31.2969 51.2188 30.8958 51.2188 30.5312L51.2344 29.5781ZM59.2812 30.4062C58.5 31.6354 57.4583 32.3958 56.1562 32.6875C55.8542 32.75 55.5781 32.7812 55.3281 32.7812C55.0885 32.7812 54.8854 32.7812 54.7188 32.7812C54.5625 32.7708 54.3854 32.7448 54.1875 32.7031C53.9896 32.6615 53.8073 32.5938 53.6406 32.5C53.2552 32.2812 53.0625 31.974 53.0625 31.5781C53.0208 31.3906 53 31.1823 53 30.9531C53 30.7135 53.0521 30.401 53.1562 30.0156C53.2604 29.6302 53.4479 29.2135 53.7188 28.7656C54 28.3177 54.3385 27.9062 54.7344 27.5312C55.5573 26.7396 56.4479 26.2292 57.4062 26C57.6875 25.9375 57.9427 25.9062 58.1719 25.9062C58.4115 25.9062 58.625 25.9219 58.8125 25.9531C59.4167 25.9531 59.8229 26.3646 60.0312 27.1875C60.1667 27.7083 60.2448 28.4375 60.2656 29.375C60.2969 30.3021 60.3229 31.0208 60.3438 31.5312C60.375 32.0312 60.4427 32.4896 60.5469 32.9062H59.625C59.5833 32.625 59.5521 32.375 59.5312 32.1562C59.5104 31.9375 59.4896 31.7344 59.4688 31.5469C59.4167 31.1094 59.3542 30.7292 59.2812 30.4062ZM59.2188 27.9844C59.2188 27.3802 58.9219 27.0781 58.3281 27.0781C58.2552 27.0677 58.1823 27.0625 58.1094 27.0625C57.349 27.0625 56.5469 27.4271 55.7031 28.1562C55.3073 28.4896 54.9688 28.8646 54.6875 29.2812C54.2708 29.875 54.0625 30.4062 54.0625 30.875C54.0625 31.4896 54.4167 31.8542 55.125 31.9688C56.0625 31.9479 56.9583 31.5208 57.8125 30.6875C58.1771 30.3229 58.4792 29.9271 58.7188 29.5C59.0521 28.9271 59.2188 28.4219 59.2188 27.9844ZM61.5625 26.9375C61.5417 26.375 61.5208 25.875 61.5 25.4375C61.4792 24.9896 61.4635 24.6615 61.4531 24.4531C61.4531 24.2344 61.3698 23.7083 61.2031 22.875C61.2969 22.75 61.3854 22.6302 61.4688 22.5156C61.5625 22.401 61.6927 22.3438 61.8594 22.3438C62.224 22.3438 62.5052 23.8802 62.7031 26.9531C62.8073 28.7344 62.8594 30.5156 62.8594 32.2969C62.8594 32.776 62.526 33.0156 61.8594 33.0156L61.7344 33C61.7344 32.4583 61.7188 31.7656 61.6875 30.9219C61.6562 30.0781 61.6302 29.3438 61.6094 28.7188C61.599 28.0938 61.5833 27.5 61.5625 26.9375ZM65.2031 25.6562C65.3385 27.6042 65.4531 29.8594 65.5469 32.4219C65.4844 32.7448 65.2344 32.9062 64.7969 32.9062C64.6823 32.9062 64.5625 32.8854 64.4375 32.8438C64.3229 32.7917 64.25 32.724 64.2188 32.6406V25.6562H65.2031ZM63.75 23.5312C63.75 23.1667 63.9635 22.9844 64.3906 22.9844C64.6719 22.9844 64.901 23.0469 65.0781 23.1719C65.1094 23.2865 65.125 23.401 65.125 23.5156C65.125 23.6198 65.0833 23.724 65 23.8281C64.9167 23.9323 64.7917 23.9844 64.625 23.9844C64.4583 23.9844 64.2917 23.9479 64.125 23.875C63.9583 23.7917 63.8333 23.6771 63.75 23.5312ZM67.9531 33.0625C66.9115 33.0625 66.3906 32.8333 66.3906 32.375C66.3906 32.0833 66.6198 31.7031 67.0781 31.2344C67.5365 30.7656 67.9375 30.3854 68.2812 30.0938C68.625 29.7917 68.9531 29.5 69.2656 29.2188C70.0052 28.5417 70.6094 27.9167 71.0781 27.3438C70.9844 27.3438 70.8438 27.3438 70.6562 27.3438C70.4688 27.3438 70.1927 27.3594 69.8281 27.3906C69.474 27.4115 69.099 27.4427 68.7031 27.4844C67.6302 27.599 66.9271 27.6562 66.5938 27.6562C66.2604 27.6562 66.0938 27.5833 66.0938 27.4375C66.0938 27.2604 66.1927 27.099 66.3906 26.9531C66.599 26.8073 66.7448 26.7344 66.8281 26.7344C66.9219 26.7344 66.9896 26.7292 67.0312 26.7188C67.0833 26.7083 67.1667 26.6979 67.2812 26.6875C67.3958 26.6667 67.5573 26.6458 67.7656 26.625C67.9844 26.5938 68.276 26.5625 68.6406 26.5312C69.3594 26.4583 70.4844 26.3594 72.0156 26.2344C72.5156 26.2969 72.7656 26.4792 72.7656 26.7812C72.7656 27.1667 72.401 27.7292 71.6719 28.4688C71.026 29.1146 70.3333 29.7656 69.5938 30.4219C68.8646 31.0781 68.3542 31.5625 68.0625 31.875C68.4688 31.9062 68.8229 31.9219 69.125 31.9219L71.6875 31.8125C72.0833 31.8125 72.4427 31.8333 72.7656 31.875C73.0885 31.9062 73.2865 31.9375 73.3594 31.9688C73.526 32.0625 73.6094 32.2396 73.6094 32.5C73.6094 32.6042 73.5885 32.7188 73.5469 32.8438C73.2865 32.8125 73.0156 32.7969 72.7344 32.7969C72.4531 32.7969 72.0833 32.8125 71.625 32.8438C71.1667 32.875 70.6146 32.9167 69.9688 32.9688C69.0833 33.0312 68.4115 33.0625 67.9531 33.0625ZM80.2812 30.4062C79.5 31.6354 78.4583 32.3958 77.1562 32.6875C76.8542 32.75 76.5781 32.7812 76.3281 32.7812C76.0885 32.7812 75.8854 32.7812 75.7188 32.7812C75.5625 32.7708 75.3854 32.7448 75.1875 32.7031C74.9896 32.6615 74.8073 32.5938 74.6406 32.5C74.2552 32.2812 74.0625 31.974 74.0625 31.5781C74.0208 31.3906 74 31.1823 74 30.9531C74 30.7135 74.0521 30.401 74.1562 30.0156C74.2604 29.6302 74.4479 29.2135 74.7188 28.7656C75 28.3177 75.3385 27.9062 75.7344 27.5312C76.5573 26.7396 77.4479 26.2292 78.4062 26C78.6875 25.9375 78.9427 25.9062 79.1719 25.9062C79.4115 25.9062 79.625 25.9219 79.8125 25.9531C80.4167 25.9531 80.8229 26.3646 81.0312 27.1875C81.1667 27.7083 81.2448 28.4375 81.2656 29.375C81.2969 30.3021 81.3229 31.0208 81.3438 31.5312C81.375 32.0312 81.4427 32.4896 81.5469 32.9062H80.625C80.5833 32.625 80.5521 32.375 80.5312 32.1562C80.5104 31.9375 80.4896 31.7344 80.4688 31.5469C80.4167 31.1094 80.3542 30.7292 80.2812 30.4062ZM80.2188 27.9844C80.2188 27.3802 79.9219 27.0781 79.3281 27.0781C79.2552 27.0677 79.1823 27.0625 79.1094 27.0625C78.349 27.0625 77.5469 27.4271 76.7031 28.1562C76.3073 28.4896 75.9688 28.8646 75.6875 29.2812C75.2708 29.875 75.0625 30.4062 75.0625 30.875C75.0625 31.4896 75.4167 31.8542 76.125 31.9688C77.0625 31.9479 77.9583 31.5208 78.8125 30.6875C79.1771 30.3229 79.4792 29.9271 79.7188 29.5C80.0521 28.9271 80.2188 28.4219 80.2188 27.9844ZM89.6719 20.4531C89.6719 21.4531 89.6406 22.4323 89.5781 23.3906C89.526 24.3385 89.474 25.2708 89.4219 26.1875C89.3802 27.0938 89.3594 28.0625 89.3594 29.0938C89.3594 30.1146 89.4323 31.1979 89.5781 32.3438C89.5781 32.5833 89.5312 32.7552 89.4375 32.8594C89.3542 32.9635 89.2083 33.0156 89 33.0156C88.5104 33.0156 88.2656 32.6094 88.2656 31.7969V31.2812C86.7865 32.3854 85.5365 32.9375 84.5156 32.9375C84.1094 32.9375 83.6927 32.8385 83.2656 32.6406C82.849 32.4427 82.4531 32.0417 82.0781 31.4375C82.026 31.1875 82 30.9323 82 30.6719C82 30.4115 82.0469 30.099 82.1406 29.7344C82.2448 29.3594 82.4479 28.974 82.75 28.5781C83.0625 28.1823 83.4375 27.8333 83.875 27.5312C84.8333 26.8854 85.8698 26.5625 86.9844 26.5625C87.4635 26.5625 87.9219 26.6354 88.3594 26.7812C88.3594 26.5938 88.3698 26.2656 88.3906 25.7969C88.4219 25.3281 88.4531 24.8333 88.4844 24.3125C88.5469 22.9583 88.5885 22.1615 88.6094 21.9219C88.6302 21.6719 88.6562 21.4635 88.6875 21.2969C88.7292 21.1198 88.7865 20.9688 88.8594 20.8438C89.0156 20.5833 89.2865 20.4531 89.6719 20.4531ZM83.1406 30.5469C83.1406 31.3698 83.4375 31.7812 84.0312 31.7812C84.125 31.7812 84.2292 31.7708 84.3438 31.75C84.7708 31.75 85.2969 31.625 85.9219 31.375C87.1094 30.9062 87.8333 30.5 88.0938 30.1562V28.0781C88.0938 27.7135 87.7969 27.5312 87.2031 27.5312C87.1302 27.5208 87.0312 27.5156 86.9062 27.5156C86.7917 27.5156 86.6094 27.5417 86.3594 27.5938C86.1094 27.6458 85.8281 27.7396 85.5156 27.875C85.2031 28.0104 84.8958 28.1771 84.5938 28.375C83.9583 28.8021 83.5208 29.3021 83.2812 29.875C83.1875 30.0938 83.1406 30.3177 83.1406 30.5469ZM90.875 30.0312C90.875 28.8021 91.4062 27.8125 92.4688 27.0625C93.3125 26.4688 94.3281 26.1094 95.5156 25.9844C95.5781 25.9844 95.724 25.9844 95.9531 25.9844C96.1823 25.9844 96.4896 26.0521 96.875 26.1875C97.7292 26.4792 98.3125 26.9948 98.625 27.7344C98.75 28.026 98.8125 28.276 98.8125 28.4844C98.8125 28.6823 98.8073 28.8229 98.7969 28.9062C98.7969 30.2083 98.3021 31.2344 97.3125 31.9844C96.3958 32.6719 95.25 33.0156 93.875 33.0156C92.8854 33.0156 92.1354 32.7865 91.625 32.3281C91.125 31.8698 90.875 31.1042 90.875 30.0312ZM91.9531 30.4062C91.9531 31.0521 92.125 31.4896 92.4688 31.7188C92.7292 31.8854 93.1667 31.9688 93.7812 31.9688C94.3958 31.9688 94.9375 31.9219 95.4062 31.8281C95.875 31.7344 96.2917 31.5729 96.6562 31.3438C97.4375 30.8438 97.8281 30.0677 97.8281 29.0156C97.8281 28.3906 97.6615 27.8802 97.3281 27.4844C96.9635 27.0573 96.4844 26.8438 95.8906 26.8438C95.4844 26.9167 95.0729 26.9948 94.6562 27.0781C94.25 27.1615 93.8646 27.3229 93.5 27.5625C92.7083 28.0729 92.1927 29.0208 91.9531 30.4062ZM104.828 28.9688C105.974 28.9688 106.547 29.2604 106.547 29.8438C106.547 30.2812 106.229 30.7917 105.594 31.375C104.646 32.2396 103.37 32.9323 101.766 33.4531C101.693 33.4531 101.609 33.3802 101.516 33.2344C101.432 33.0885 101.365 32.9792 101.312 32.9062C101.271 32.8229 101.24 32.7708 101.219 32.75C102.417 32.3542 103.401 31.875 104.172 31.3125C104.693 30.9375 104.953 30.6302 104.953 30.3906C104.953 30.151 104.646 30.0312 104.031 30.0312C103.417 30.0312 102.516 30.1771 101.328 30.4688C100.786 30.4479 100.318 30.2552 99.9219 29.8906C99.5781 29.5677 99.4062 29.2448 99.4062 28.9219C99.4062 28.5885 99.5 28.2865 99.6875 28.0156C99.875 27.7344 100.125 27.474 100.438 27.2344C100.75 26.9948 101.115 26.776 101.531 26.5781C102.552 26.0885 103.609 25.8438 104.703 25.8438C105.026 25.8438 105.339 25.875 105.641 25.9375C105.891 25.9375 106.036 26.0469 106.078 26.2656C106.12 26.4844 106.141 26.8438 106.141 27.3438C105.526 27.0625 104.833 26.9219 104.062 26.9219C103.104 26.9219 102.312 27.1146 101.688 27.5C101.042 27.875 100.708 28.3646 100.688 28.9688C100.688 29.2604 100.901 29.4062 101.328 29.4062L102.469 29.2812C103.448 29.0729 104.234 28.9688 104.828 28.9688Z" fill="white"/>
</svg>
