<svg width="17" height="14" viewBox="0 0 17 14" fill="none" xmlns="http://www.w3.org/2000/svg">
<path d="M14.9713 7.9525C14.7263 4.70625 12.4425 2.46625 8.63751 2.46625C4.83251 2.46625 2.54376 4.845 2.31876 8.0925C2.18751 9.985 2.89126 11.6712 4.30751 12.6325C5.24001 13.2662 6.54251 13.6175 8.65376 13.6175C10.8013 13.6175 12.0325 13.1537 12.965 12.5262C14.5188 11.4825 15.1125 9.8175 14.9713 7.9525Z" fill="#FFC022"/>
<path d="M7.3525 4.50374C6.425 2.10374 4.4 0.471243 3.62125 0.227493C3.3275 0.134993 2.95875 0.126243 2.7925 0.396243C2.3725 1.07749 1.835 3.26499 3.02375 6.36874L7.3525 4.50374Z" fill="#FFC022"/>
<path d="M5.15244 3.45499C5.34494 3.29374 5.43869 3.13624 5.22744 2.80999C4.89994 2.30374 4.31119 1.71249 4.08244 1.53124C3.70744 1.23374 3.41744 1.13374 3.30619 1.61249C3.09994 2.49749 3.11619 3.69874 3.33744 4.36124C3.41494 4.59499 3.65494 4.71874 3.83994 4.55749L5.15244 3.45499Z" fill="#FFD1D1"/>
<path d="M7.4025 4.80624C7.54375 4.92624 7.83 4.90874 7.99625 4.71624C8.1975 4.48249 8.4075 3.69499 8.27625 2.47749C7.6925 2.49874 7.14 2.58249 6.625 2.72374C7.04125 3.40624 7.14125 4.58374 7.4025 4.80624ZM9.8725 4.80624C9.73125 4.92624 9.445 4.90874 9.27875 4.71624C9.0775 4.48249 8.8675 3.69499 8.99875 2.47749C9.5825 2.49874 10.135 2.58249 10.65 2.72374C10.2337 3.40624 10.1337 4.58374 9.8725 4.80624Z" fill="#FF9B31"/>
<path d="M10.625 2.83125C11.635 1.28 13.0475 0.237496 13.6337 0.0512456C13.9237 -0.0412544 14.2612 -0.0262545 14.4262 0.244996C14.8412 0.926245 15.1925 3.025 14.3737 5.96375L11.3825 4.52125L10.625 2.83125Z" fill="#FFC022"/>
<path d="M12.8312 3.95748C13.135 4.26123 13.3825 4.46498 13.5612 4.65873C13.68 4.78748 13.8975 4.72873 13.9325 4.55623C14.2387 3.08123 14.1412 1.82373 13.9325 1.49373C13.8325 1.33623 13.6462 1.29498 13.4762 1.35248C13.1712 1.45373 12.3937 2.03373 11.845 2.87998C11.7812 2.97873 11.805 3.11123 11.9025 3.17748C12.1 3.31123 12.445 3.56998 12.8312 3.95748Z" fill="#FFD1D1"/>
<path d="M7.59624 8.89749C7.58999 8.51249 8.14249 8.32874 8.66374 8.31999C9.18624 8.31124 9.74874 8.48124 9.75499 8.86624C9.76124 9.25124 9.10249 9.75749 8.68749 9.75749C8.27374 9.75749 7.60374 9.28124 7.59624 8.89749Z" fill="black"/>
<path d="M1.475 8.05749C1.5175 8.10874 2.02625 8.10124 3.27 8.69124M1 9.53624C1 9.53624 1.8025 9.25624 3.1825 9.50124M1.73875 10.715C1.73875 10.715 2.08125 10.5425 3.3225 10.4337M15.7463 7.61749C15.7463 7.61749 15.32 7.65874 14.0037 8.40999M15.94 8.98999C15.94 8.98999 15.3038 8.94499 13.9338 9.23624M15.6937 10.31C15.6937 10.31 15.09 10.0962 13.8462 10.0287" stroke="#9E9E9E" stroke-width="0.375" stroke-miterlimit="10" stroke-linecap="round"/>
<path d="M12.6487 7.47499C12.6062 8.16374 12.1787 8.54249 11.6924 8.54249C11.2062 8.54249 10.8124 8.05749 10.8124 7.45999C10.8124 6.86249 11.2224 6.37124 11.7687 6.40124C12.4024 6.43749 12.6837 6.91249 12.6487 7.47499ZM6.38742 7.40499C6.48492 8.10624 6.18992 8.53374 5.70117 8.63249C5.21242 8.73124 4.79367 8.40249 4.67242 7.80249C4.54992 7.20124 4.78492 6.63749 5.33992 6.55624C5.98367 6.46249 6.30742 6.83124 6.38742 7.40499Z" fill="#000200"/>
<path d="M6.26125 9.82374C5.94 10.0325 6.32 10.5162 6.5425 10.68C6.765 10.8437 7.165 11.045 7.75125 10.985C8.44375 10.915 8.6425 10.3987 8.6425 10.3987C8.6425 10.3987 8.88875 10.9737 9.745 10.9975C10.6137 11.0212 10.8825 10.5512 11 10.4112C11.1175 10.27 11.235 9.90624 11.035 9.76624C10.835 9.62499 10.695 9.80124 10.4837 10.095C10.2725 10.3887 9.83875 10.5525 9.41625 10.3525C8.99375 10.1525 8.97 9.47249 8.97 9.47249L8.37125 9.50749C8.37125 9.50749 8.2775 10.0937 8.0075 10.2812C7.7375 10.4687 7.0925 10.5162 6.8225 10.105C6.70375 9.92249 6.53125 9.64749 6.26125 9.82374Z" fill="black"/>
</svg>
